<svg width="212" height="37" xmlns="http://www.w3.org/2000/svg" preserveAspectRatio="xMidYMid meet" version="1.0">
 <g>
  <g stroke="null" transform="translate(0 261) scale(0.05 -0.05)">
   <path stroke="null" id="svg_2" d="m2780.09295,5169.95007c-180.25026,-9.6705 -304.357,-32.3271 -304.357,-55.26c0,-120.1905 215.21684,-298.40401 396.94456,-328.79701c92.58757,-15.4728 292.53731,-8.0127 292.53731,10.7757c0,28.7352 -191.57746,146.7153 -332.92125,204.7383c-81.26036,33.4323 -96.52746,46.971 -68.94819,62.4438c57.1285,32.0508 397.92954,-151.965 512.18653,-276.85261c28.07176,-30.393 32.01166,-40.6161 35.45907,-90.9027l4.43238,-56.6415l27.08679,0c29.05674,0 38.90648,10.2231 39.39896,39.2346c0.49249,88.9686 459.98291,304.20631 546.16814,256.13011c27.57927,-15.7491 -22.6544,-52.7733 -81.75285,-59.6808c-61.06839,-7.1838 -296.96969,-114.3882 -296.96969,-134.8344c0,-13.5387 105.88472,-24.867 210.78446,-22.3803c197.48731,4.4208 338.3386,72.6669 421.07643,204.1857c49.24871,77.364 45.30881,80.127 -150.20855,103.8888c-337.84612,41.1687 -587.53705,-37.8531 -590.49197,-186.7788c-0.49249,-20.4462 -77.81295,-80.9559 -78.79793,-61.6149c0,4.6971 -12.80466,22.104 -27.57927,38.682l-27.57927,30.393l18.71451,33.156c27.08679,48.0762 20.68446,121.2957 -14.77461,164.1222c-82.73782,101.1258 -250.67591,140.913 -530.40855,125.9928z"/>
   <path stroke="null" id="svg_3" d="m1658.20745,5072.69247c0,-32.0508 47.77124,-62.9964 97.51244,-62.9964c57.62098,0 29.05674,69.6276 -33.98161,82.89c-52.69611,11.3283 -63.53083,7.7364 -63.53083,-19.8936z"/>
   <path stroke="null" id="svg_4" d="m1887.70642,5087.33637c-39.89145,-13.5387 -52.20363,-26.8011 -52.20363,-55.8126l0,-23.2092l36.44404,3.3156c53.68109,4.6971 83.7228,24.3144 89.14016,58.2993c5.90984,32.8797 -14.28212,37.5768 -73.38057,17.4069z"/>
   <path stroke="null" id="svg_5" d="m1211.5217,5007.48566c-285.15,-59.6808 -205.85959,-269.94511 104.40725,-278.51041c103.42228,-2.763 107.85466,-4.1445 73.87306,-21.8277c-30.5342,-16.0254 -69.44067,-23.4855 -121.6443,-23.4855c-70.42565,0 -131.98653,-29.5641 -131.98653,-63.549c0,-5.8023 215.21684,-2.4867 247.2285,3.5919c66.97824,12.9861 115.24197,36.4716 143.80622,70.4565l27.08679,32.3271l98.49741,3.8682c74.36554,2.763 109.82461,6.9075 144.79119,16.8543l46.78627,12.9861l2.95492,-14.6439l2.95492,-14.9202l182.22021,0.2763c229.49897,0.2763 276.28524,10.2231 342.2785,73.4958c38.41399,36.4716 48.26373,155.5569 12.80466,155.5569c-64.02332,0 -108.83964,-32.8797 -108.83964,-80.127c0,-65.2068 -65.00829,-83.9952 -264.46555,-76.8114l-106.3772,3.5919l12.31218,20.1699c13.78964,21.2751 18.71451,130.9662 6.40233,134.8344c-45.8013,14.0913 -111.30207,-24.3144 -117.21192,-68.7987c-8.86477,-69.075 -44.81632,-87.5871 -169.90803,-87.5871l-79.7829,0l0,35.6427c0,125.4402 -165.96814,204.7383 -348.18835,166.6089zm166.95311,-82.3374c37.9215,-19.341 51.71114,-44.208 52.69611,-93.6657l0.49249,-26.2485l-96.52746,0c-108.34715,0 -127.55415,4.4208 -154.14845,36.1953c-59.09845,69.9039 96.52746,135.9396 197.48731,83.7189z"/>
   <path stroke="null" id="svg_6" d="m417.14008,4835.35076c0,-156.6621 -2.46244,-163.5696 -62.54586,-184.2921c-116.71943,-40.3398 -203.39715,8.8416 -203.39715,115.7697c0,69.6276 -7.38731,81.2322 -59.09845,96.4287c-59.09845,17.1306 -59.09845,17.4069 -59.09845,-84.2715c0,-108.0333 5.90984,-123.7824 60.57591,-158.3199c160.55078,-102.7836 425.01633,-49.734 447.67073,89.7975l6.40233,38.4057l32.99663,-7.7364c185.17513,-43.3791 340.80104,29.2878 347.20337,162.1881l3.44741,73.2195l-23.14689,0c-68.4557,0 -106.86969,-33.7086 -106.86969,-94.2183c0,-28.7352 -15.75959,-50.8392 -43.83135,-61.8912c-22.16192,-8.5653 -25.11684,-2.2104 -25.11684,54.1548c0,64.6542 -11.3272,84.5478 -53.68109,95.3235c-63.53083,16.3017 -64.5158,14.9202 -64.5158,-73.4958c0,-44.4843 -3.9399,-80.127 -8.86477,-80.127c-28.07176,0 -60.08342,34.8138 -60.08342,65.4831c0,60.786 -35.95155,94.7709 -99.97487,94.7709l-28.07176,0l0,-141.1893z"/>
   <path stroke="null" id="svg_7" d="m2079.28388,4697.20076c-44.32383,-13.5387 -83.7228,-85.3767 -46.29378,-85.3767c57.1285,0 117.70441,37.5768 117.70441,73.2195c0,23.4855 -21.66943,27.3537 -71.41062,12.1572z"/>
   <path stroke="null" id="svg_8" d="m2239.34217,4681.72796c0,-34.8138 59.59093,-69.9039 117.70441,-69.9039c36.44404,0 2.46244,67.9698 -41.36891,82.89c-55.15855,19.0647 -76.33549,15.1965 -76.33549,-12.9861z"/>
   <path stroke="null" id="svg_9" d="m2166.94658,4625.36276c-35.95155,-29.5641 -34.96658,-57.4704 1.96995,-80.6796l28.07176,-17.6832l26.10181,21.5514c35.95155,29.5641 34.96658,57.4704 -1.96995,80.6796l-28.07176,17.6832l-26.10181,-21.5514z"/>
  </g>
 </g>
</svg>